# xmcd
# 
# Track frame offsets:
#   150
#   17780
#   33737
#   49622
#   64030
#   81995
#   96220
#   111697
#   125765
#   140515
#   157287
#   172345
#   186895
#   205387
# 
# Disc length: 2915 seconds
# 
# Revision: 1
# Processed by: cddbd v1.5.1PL2 Copyright (c) Steve Scherf et al.
# Submitted via: Synapstar 1.0 
# 
DISCID=dd0b610e
DTITLE=Various Artist - SD038 - Country Hits Today
DYEAR=1900
DGENRE=Country
TTITLE0=Tim McGraw With Faith Hill - It's Your Love
TTITLE1=Reba McEntyre - I'd Rather Ride Around With You
TTITLE2=Tracy Lawrence - How A Cowgirl Says Goodbye
TTITLE3=Clay Walker - One Two I Love You
TTITLE4=Randy Travis - King Of The Road
TTITLE5=John Berry - I Will If You Will
TTITLE6=Travis Tritt - She's Goin' Home With Me
TTITLE7=Trace Adkins - I Left Something Turned On At Home
TTITLE8=Pam Tillis - All The Good Ones Are Gone
TTITLE9=Lee Roy Parnell - Lucky Me, Lucky You
TTITLE10=Tracy Byrd - Don't Love Make A Diamond Shine
TTITLE11=Sammy Kershaw - Fit To Be Tied Down
TTITLE12=Gary Allen - From Where I'm Sitting
TTITLE13=Sawyer Brown - Six Days On The Road
EXTD=MediaType: Karaoke CD+G Producer: StarDisc
EXTT0=
EXTT1=
EXTT2=
EXTT3=
EXTT4=
EXTT5=
EXTT6=
EXTT7=
EXTT8=
EXTT9=
EXTT10=
EXTT11=
EXTT12=
EXTT13=
PLAYORDER=
